<?xml version="1.0" encoding="utf-8"?>
<!-- Generator: Adobe Illustrator 19.2.1, SVG Export Plug-In . SVG Version: 6.00 Build 0)  -->
<svg version="1.1" id="Layer_1" xmlns="http://www.w3.org/2000/svg" xmlns:xlink="http://www.w3.org/1999/xlink" x="0px" y="0px"
	 viewBox="0 0 512 512" style="enable-background:new 0 0 512 512;" xml:space="preserve">
<style type="text/css">
	.st0{fill:#FF4848;}
	.st1{fill:#48CDFF;}
	.st2{fill:#FFFFFF;}
</style>
<path class="st0" d="M502.4,211.2c0,74.7-60.5,135.2-135.2,135.2c-6.5,0-12.9-0.5-19.3-1.4c-66.5-9.6-115.8-66.6-115.9-133.7
	c-0.1-48.3,25.7-93,67.6-117c14.9-8.7,31.3-14.4,48.3-16.8c6.4-0.9,12.9-1.3,19.3-1.4C441.9,76.1,502.4,136.6,502.4,211.2z"/>
<path class="st1" d="M340.9,334c-57.9-12.4-99.3-63.5-99.3-122.7c0-8.9,0.8-17.8,2.6-26.5c2.2-9.3,5.4-18.3,9.7-26.8
	c1.6-3.1,1.4-6.8-0.5-9.7c-24.7-40.1-54.6-84.6-95.6-117.3c-4.9-4-10.1-7.8-15.5-11.2c-4.9-3.2-10-5.9-15.5-8
	c-1.9-0.8-3.9-1-5.9-0.5c-5.2,1.2-8.5,6.3-7.3,11.5l1.2,5.1c1.3,5.5,2.5,11,3.5,16.7c1.6,8.4,2.5,17,2.8,25.6v6.8
	c-0.2,50.3-21.1,98.2-57.9,132.5c-18.4,15.9-33.9,34.7-46,55.8C-2.9,304.8-5.5,351,10,392.6c22.5,58.2,74.7,99.6,136.4,108.3h1.5
	c5.3,0.8,10.3-2.9,11.1-8.2c0.8-5.3-2.9-10.3-8.2-11.1c-22.5-6.5-40.7-22.9-49.5-44.5c-6.8-18.3-5.7-38.6,3.1-56
	c5.7-9.7,13-18.4,21.5-25.8c22.6-21,35.4-50.5,35.4-81.3v-10c7.5,6.2,14,13.5,19.3,21.5c9.3,14.4,14.4,31.1,14.6,48.3v0.8
	c0,18.8-5.7,37.1-16.5,52.4c-0.2,0.3-0.3,0.5-0.5,0.8c-2.6,4.6-1,10.5,3.7,13.2c10,6.5,22.8,7.1,33.4,1.5
	c11.5-7.2,20.1-18.2,24.1-31.1c9.1,11.6,14.2,26,14.4,40.8c-0.7,31.5-21.2,59.2-51.2,69c-4.5,1.5-7.2,6.1-6.4,10.8
	c0.9,5.3,5.9,8.8,11.2,7.8c79.9-14.4,138-78.9,141.2-156.1C348.7,339,345.5,334.9,340.9,334z"/>
<path class="st2" d="M367.2,356.1c-32.5,0-64-10.9-89.5-31c-35-27.4-55.5-69.4-55.3-113.8c0-10.4,1.1-20.8,3.3-31
	c2.4-10.8,6-21.2,10.8-31.1c24-50.5,74.8-82.7,130.7-82.7c80,0,144.8,64.9,144.8,144.9c0,44.4-20.4,86.3-55.3,113.8
	C431.2,345.2,399.7,356.2,367.2,356.1z M367.2,85.7c-48.5,0-92.6,27.9-113.4,71.7c-4.3,8.6-7.5,17.6-9.7,26.9
	c-1.8,8.8-2.6,17.8-2.5,26.8c0,59.2,41.4,110.3,99.3,122.7c8.6,1.9,17.4,2.8,26.3,2.8c69.3,0,125.5-56.2,125.5-125.5
	S436.5,85.7,367.2,85.7z"/>
<path class="st2" d="M318.9,269.2h-38.6c-5.3,0-9.7-4.3-9.7-9.7v-38.6c0-10.7,8.6-19.3,19.3-19.3h19.3c10.7,0,19.3,8.6,19.3,19.3
	v38.6C328.6,264.9,324.3,269.2,318.9,269.2z M290,249.9h19.3v-29H290V249.9L290,249.9z"/>
<path class="st2" d="M386.5,269.2h-38.6c-5.3,0-9.7-4.3-9.7-9.7v-67.6c0-10.7,8.6-19.3,19.3-19.3h19.3c10.7,0,19.3,8.6,19.3,19.3
	v67.6C396.2,264.9,391.8,269.2,386.5,269.2z M357.5,249.9h19.3v-57.9h-19.3V249.9z"/>
<path class="st2" d="M454.1,269.2h-38.6c-5.3,0-9.7-4.3-9.7-9.7V163c0-10.7,8.6-19.3,19.3-19.3h19.3c10.7,0,19.3,8.6,19.3,19.3v96.6
	C463.8,264.9,459.4,269.2,454.1,269.2z M425.1,249.9h19.3V163h-19.3V249.9z"/>
</svg>
