<?xml version="1.0" encoding="utf-8"?>
<!-- Generator: Adobe Illustrator 21.1.0, SVG Export Plug-In . SVG Version: 6.00 Build 0)  -->
<svg version="1.1" id="Capa_1" xmlns="http://www.w3.org/2000/svg" xmlns:xlink="http://www.w3.org/1999/xlink" x="0px" y="0px"
	 viewBox="0 0 533.3 533.3" style="enable-background:new 0 0 533.3 533.3;" xml:space="preserve">
<style type="text/css">
	.st0{fill:#48CDFF;}
</style>
<g>
	<path class="st0" d="M165.5,533.3c-35.5-74-16.6-116.3,10.7-156.3c29.9-43.7,37.6-87,37.6-87s23.5,30.6,14.1,78.4
		c41.5-46.2,49.4-119.9,43.1-148.2C365,285.9,405.1,428,351,533.3C638.7,370.6,422.6,127,384.9,99.6c12.5,27.4,14.9,73.9-10.4,96.4
		C331.6,33.3,225.6,0,225.6,0c12.5,83.9-45.5,175.6-101.4,244.1c-2-33.4-4.1-56.5-21.6-88.5c-3.9,60.8-50.4,110.3-63,171.2
		C22.6,409.2,52.3,469.6,165.5,533.3z"/>
</g>
</svg>
